<?xml version="1.0" standalone="no"?>
<!DOCTYPE svg PUBLIC "-//W3C//DTD SVG 20010904//EN"
 "http://www.w3.org/TR/2001/REC-SVG-20010904/DTD/svg10.dtd">
<svg version="1.0" xmlns="http://www.w3.org/2000/svg"
 width="912.000000pt" height="912.000000pt" viewBox="0 0 912.000000 912.000000"
 preserveAspectRatio="xMidYMid meet">

<g transform="translate(0.000000,912.000000) scale(0.100000,-0.100000)"
fill="#000000" stroke="none">
<path d="M4305 8849 c-444 -25 -931 -133 -1340 -297 -501 -201 -988 -513
-1354 -867 -222 -215 -339 -345 -485 -540 -478 -638 -757 -1349 -842 -2145
-20 -188 -23 -648 -5 -825 57 -569 203 -1072 452 -1560 592 -1161 1690 -1997
2964 -2255 446 -90 937 -110 1387 -55 807 99 1576 433 2212 958 158 130 436
409 566 567 554 673 875 1448 965 2330 24 230 16 727 -14 945 -118 850 -421
1545 -960 2205 -113 139 -408 434 -551 552 -729 600 -1585 935 -2520 988 -195
11 -271 11 -475 -1z m386 -334 c67 -24 119 -83 119 -136 0 -19 -4 -21 -37 -15
-21 3 -48 6 -59 6 -15 0 -24 8 -28 25 -8 33 -40 48 -103 48 -56 0 -83 -14 -83
-44 0 -23 37 -43 130 -68 134 -38 179 -74 187 -152 6 -60 -21 -107 -78 -137
-39 -21 -55 -23 -144 -20 -117 5 -169 26 -210 85 -37 55 -34 79 13 87 58 9 72
7 72 -10 0 -30 54 -72 102 -79 84 -13 154 40 113 85 -9 10 -53 28 -98 40 -159
43 -207 78 -214 157 -6 58 19 96 81 124 52 23 175 25 237 4z m-688 -47 c43
-24 93 -86 80 -98 -5 -4 -30 -13 -56 -19 -46 -11 -50 -10 -71 12 -47 51 -134
55 -203 10 -97 -64 -50 -288 64 -309 75 -14 155 27 168 87 l7 31 57 -7 c31 -4
58 -9 60 -11 2 -2 -4 -24 -13 -49 -21 -54 -81 -108 -144 -129 -63 -22 -176
-20 -227 3 -141 64 -198 257 -113 385 73 111 273 159 391 94z m1110 2 c73 -12
168 -29 212 -39 l80 -18 -2 -38 c-2 -21 -5 -40 -7 -43 -3 -2 -38 3 -78 12 -41
9 -111 22 -156 29 l-81 13 -7 -43 c-3 -24 -3 -47 0 -51 4 -3 66 -18 139 -32
l132 -27 -2 -38 c-2 -21 -5 -40 -7 -43 -3 -2 -64 8 -137 22 -73 15 -135 23
-139 19 -4 -4 -11 -33 -14 -65 -7 -56 -7 -56 21 -62 15 -3 78 -15 139 -27 61
-12 117 -25 124 -29 17 -11 4 -80 -15 -80 -7 0 -42 7 -77 15 -35 8 -121 23
-192 34 -70 11 -129 21 -130 23 -2 2 41 476 43 486 2 4 24 2 154 -18z m-1624
-325 c33 -132 57 -243 53 -246 -8 -7 -103 -31 -107 -27 -2 2 -12 37 -24 78
-11 41 -41 145 -66 230 -24 85 -45 162 -45 171 0 12 17 21 58 31 31 8 60 12
64 9 4 -3 34 -114 67 -246z m2128 214 l41 -12 45 -116 c25 -64 55 -149 68
-188 13 -40 25 -73 28 -73 4 0 26 64 51 141 25 78 50 144 57 146 15 6 103 -26
103 -37 0 -4 -16 -52 -36 -106 -20 -55 -54 -151 -76 -214 -22 -63 -43 -119
-48 -124 -4 -4 -31 -1 -59 9 -49 16 -50 18 -66 73 -28 94 -108 312 -116 312
-3 0 -9 -15 -13 -32 -4 -18 -20 -85 -37 -149 l-31 -116 -46 12 c-43 10 -47 14
-46 41 0 28 92 431 101 447 3 4 12 6 21 3 10 -3 36 -10 59 -17z m-2699 -196
c11 -27 46 -111 77 -188 32 -77 59 -143 61 -147 2 -3 52 13 112 37 157 64 156
64 170 19 6 -21 9 -41 6 -45 -2 -4 -28 -15 -57 -25 -28 -9 -108 -41 -176 -71
-68 -29 -126 -52 -127 -50 -7 6 -204 446 -204 454 0 8 95 61 111 62 4 1 16
-20 27 -46z m-249 -147 c48 -25 62 -80 37 -140 l-14 -34 44 -5 c51 -5 81 -28
100 -74 19 -44 18 -69 -7 -120 -18 -38 -43 -59 -173 -146 -83 -56 -154 -102
-158 -102 -4 0 -70 93 -147 207 l-140 208 52 38 c227 166 328 208 406 168z
m3856 -17 c72 -27 161 -107 175 -159 12 -46 3 -100 -17 -100 -9 0 -33 10 -54
22 -31 17 -39 27 -39 50 0 43 -16 65 -60 88 -46 24 -83 26 -99 6 -18 -21 -5
-39 89 -129 87 -83 100 -105 100 -171 0 -73 -59 -126 -139 -126 -89 0 -231 84
-265 155 -16 33 -24 130 -13 141 2 3 26 -4 53 -14 45 -18 48 -22 50 -56 1 -49
31 -87 88 -110 57 -24 99 -14 104 24 2 20 -14 41 -79 105 -45 44 -90 93 -100
110 -38 61 -15 151 45 175 37 15 104 11 161 -11z m-1553 -178 c271 -40 598
-132 838 -236 198 -85 471 -243 649 -375 307 -228 628 -575 830 -901 265 -427
421 -889 477 -1412 19 -183 14 -569 -11 -742 -91 -648 -340 -1208 -755 -1700
-95 -112 -326 -336 -445 -431 -259 -206 -535 -367 -829 -484 -1003 -399 -2141
-282 -3026 310 -609 408 -1054 982 -1290 1665 -133 386 -197 852 -172 1243 41
610 217 1144 534 1622 525 789 1347 1311 2268 1439 207 29 197 29 505 26 228
-1 308 -6 427 -24z m1078 -37 c22 -9 40 -18 40 -20 0 -15 -34 -84 -41 -84 -11
0 -89 39 -89 44 0 15 32 76 40 76 5 0 28 -7 50 -16z m936 -77 c140 -99 264
-196 264 -206 0 -3 -12 -19 -26 -35 l-25 -28 -42 33 c-23 19 -80 62 -127 97
l-84 63 -28 -33 c-15 -18 -27 -38 -25 -44 1 -6 49 -47 106 -90 58 -43 107 -84
108 -90 2 -7 -7 -24 -20 -39 l-23 -27 -108 81 c-59 44 -112 81 -116 81 -10 0
-70 -84 -70 -97 0 -4 42 -39 93 -76 51 -37 105 -79 120 -93 l28 -24 -23 -30
c-13 -16 -26 -29 -31 -29 -4 -1 -31 19 -61 43 -29 24 -100 76 -157 116 -57 41
-108 77 -112 81 -11 9 242 409 258 409 6 0 52 -28 101 -63z m-4783 -121 c96
-133 136 -203 137 -240 0 -44 -27 -102 -71 -151 -61 -66 -113 -102 -167 -114
-78 -17 -104 -2 -249 142 -73 72 -133 138 -133 146 0 18 69 91 85 91 7 0 60
-54 120 -121 59 -66 119 -127 131 -136 37 -24 86 -10 128 37 65 72 56 93 -151
346 -18 23 -33 45 -33 50 0 11 82 83 96 84 5 0 54 -60 107 -134z m5255 -271
c63 -29 146 -110 172 -168 22 -47 26 -123 9 -161 l-12 -25 -44 32 c-40 29 -43
35 -39 67 11 74 -69 169 -145 172 -45 1 -90 -23 -128 -69 -64 -78 -63 -153 4
-212 43 -37 76 -47 124 -35 36 9 36 9 64 -38 15 -26 27 -50 27 -52 0 -12 -88
-27 -123 -22 -184 30 -304 252 -217 402 71 124 187 166 308 109z m-5728 -131
c41 -35 60 -74 60 -123 0 -53 -13 -81 -82 -178 -32 -45 -58 -83 -58 -86 0 -3
107 -91 133 -108 7 -5 -24 -63 -59 -107 -1 -2 -74 49 -161 114 -87 64 -177
131 -200 147 -24 17 -43 34 -43 37 0 12 127 184 176 239 64 71 98 91 156 91
36 0 54 -6 78 -26z m5817 -516 c18 -18 33 -37 33 -44 0 -7 -14 -24 -31 -38
-35 -29 -43 -27 -81 26 l-20 29 28 30 c15 16 30 29 33 29 3 0 20 -14 38 -32z
m-6209 -109 c69 -34 135 -102 153 -156 24 -73 9 -138 -66 -287 -39 -76 -76
-140 -83 -143 -14 -6 -462 197 -462 210 0 20 142 285 172 321 17 21 54 49 82
62 71 33 128 31 204 -7z m6664 8 c44 -27 66 -54 103 -127 33 -65 44 -163 25
-210 -11 -26 -67 -79 -73 -69 -2 2 -13 27 -26 56 l-24 51 22 28 c26 33 26 34
0 94 -32 75 -91 101 -105 46 -3 -12 4 -63 15 -114 12 -50 21 -109 21 -129 0
-72 -68 -143 -137 -143 -79 0 -130 43 -184 154 -57 117 -52 214 14 274 l25 24
32 -46 31 -46 -21 -31 c-38 -52 -20 -144 38 -189 71 -56 99 1 67 135 -17 71
-19 168 -4 198 33 67 112 86 181 44z m-7105 -551 c2 -2 -21 -69 -52 -150 -30
-81 -55 -155 -55 -165 0 -14 12 -22 44 -30 25 -6 47 -11 50 -11 2 0 14 30 26
68 32 95 81 222 86 222 5 0 66 -30 73 -36 1 -1 -18 -61 -43 -132 -25 -71 -46
-136 -46 -145 0 -9 21 -20 58 -31 68 -19 72 -19 72 -6 0 10 99 282 105 288 5
6 74 -18 79 -27 3 -4 -14 -59 -38 -122 -24 -63 -56 -154 -71 -204 -15 -49 -28
-91 -29 -92 -1 -2 -40 8 -87 21 -46 13 -154 43 -239 66 -85 24 -159 46 -163
50 -14 12 67 269 136 433 l16 38 38 -16 c20 -9 38 -17 40 -19z m7304 -6 c89
-46 152 -163 153 -285 1 -77 -22 -133 -70 -168 l-24 -18 -25 52 -24 52 26 31
c22 26 25 37 21 88 -5 67 -27 103 -81 133 -32 18 -41 18 -93 7 -113 -23 -173
-90 -159 -175 9 -51 59 -106 105 -116 35 -7 35 -7 35 -61 l0 -55 -40 2 c-60 4
-114 48 -153 125 -93 180 -22 353 167 405 53 14 111 8 162 -17z m-7509 -536
c22 -5 27 -11 23 -28 -3 -11 -12 -52 -20 -90 -8 -38 -13 -71 -10 -74 3 -3 96
-24 208 -46 226 -46 207 -34 192 -123 -7 -41 0 -41 -239 -3 -104 17 -191 29
-192 27 -2 -1 -8 -45 -15 -96 l-12 -93 -41 6 c-22 4 -42 9 -45 11 -7 7 19 179
49 330 40 197 40 196 59 191 9 -3 28 -8 43 -12z m7744 -90 c9 -42 9 -61 1 -66
-6 -3 -48 -12 -94 -19 -46 -7 -85 -15 -87 -18 -2 -3 4 -55 13 -116 15 -94 20
-110 35 -108 10 0 53 4 95 8 l78 7 7 -32 c3 -18 6 -47 6 -66 0 -31 -2 -33 -42
-38 -72 -9 -452 -35 -456 -31 -2 1 -6 28 -9 58 l-6 55 39 5 c22 3 69 9 107 12
l67 7 0 35 c0 33 -17 152 -25 179 -2 8 -35 6 -109 -6 l-105 -16 -12 54 c-6 29
-8 56 -5 59 7 8 468 102 481 99 5 -1 15 -29 21 -62z m-7626 -534 c118 -11 220
-20 225 -20 6 0 9 -25 7 -61 l-4 -62 -166 7 c-92 3 -209 9 -259 13 l-93 6 0
31 c0 17 3 48 6 69 8 45 -9 44 284 17z m7560 -57 c19 -8 48 -26 63 -41 121
-115 103 -383 -31 -477 -41 -28 -49 -30 -140 -30 -88 0 -101 2 -145 28 -53 32
-101 96 -118 162 -26 96 4 237 65 303 65 72 204 97 306 55z m-7442 -213 l102
0 0 -62 0 -63 -88 -67 c-48 -36 -118 -96 -157 -133 l-70 -66 40 5 c71 10 287
27 290 24 1 -2 5 -26 9 -55 l7 -52 -33 -6 c-73 -12 -424 -55 -453 -55 -32 0
-32 0 -40 63 l-7 62 86 81 c47 45 119 108 160 140 l75 59 -161 3 c-114 2 -164
6 -170 15 -10 15 -10 101 0 112 4 4 75 5 157 1 83 -3 196 -6 253 -6z m7341
-431 c66 -14 131 -71 161 -141 44 -102 9 -279 -71 -359 -53 -53 -93 -71 -158
-72 -121 -1 -227 65 -266 166 -28 73 -18 187 24 271 60 123 162 167 310 135z
m-7252 -208 c54 -25 88 -77 113 -175 24 -95 25 -144 5 -193 -22 -52 -43 -73
-100 -98 -63 -28 -334 -110 -341 -102 -3 2 -14 33 -24 67 -13 44 -15 62 -7 65
7 3 86 25 177 50 129 36 170 51 188 71 40 45 22 154 -31 189 -23 15 -32 15
-118 0 -52 -9 -136 -25 -188 -36 -52 -10 -96 -17 -98 -15 -8 8 -26 126 -20
132 8 8 328 62 372 63 17 0 49 -8 72 -18z m6998 -435 c83 -24 186 -54 230 -67
44 -12 81 -23 83 -25 3 -2 -27 -113 -34 -126 -2 -3 -92 23 -200 59 -107 36
-196 64 -198 62 -1 -2 -24 -62 -50 -134 -27 -71 -50 -131 -51 -133 -7 -8 -75
28 -75 40 0 7 17 58 39 113 21 55 49 135 61 178 13 42 28 77 34 77 6 0 79 -20
161 -44z m-6575 -731 c28 -52 57 -101 65 -108 7 -7 61 -22 119 -32 59 -10 106
-23 106 -29 0 -6 -34 -45 -76 -87 l-77 -77 13 -116 c7 -64 11 -119 8 -121 -2
-3 -50 18 -107 44 l-102 49 -55 -24 c-31 -13 -78 -36 -106 -50 -27 -14 -52
-23 -55 -21 -2 3 1 57 8 120 l13 115 -77 83 c-42 46 -77 86 -77 90 0 3 46 14
103 23 56 10 109 22 117 26 8 5 40 54 70 109 30 56 55 101 57 101 1 0 25 -43
53 -95z m6360 -25 c30 -55 62 -102 70 -104 8 -3 61 -12 118 -22 56 -10 102
-20 102 -23 -1 -3 -37 -44 -80 -91 -44 -46 -80 -91 -80 -100 0 -8 7 -60 15
-114 8 -55 13 -101 11 -103 -2 -3 -52 18 -111 45 l-107 50 -105 -50 c-58 -27
-107 -47 -109 -45 -2 2 3 55 11 117 l16 113 -33 36 c-18 20 -55 60 -82 88 -28
29 -48 54 -45 56 2 2 55 13 118 25 62 12 114 22 116 24 1 2 25 47 54 101 29
53 56 97 59 97 4 0 32 -45 62 -100z m-5462 -994 c87 -88 92 -96 92 -135 0 -34
-6 -49 -30 -73 -28 -27 -36 -30 -79 -26 l-48 5 -2 -91 c-1 -50 -5 -94 -9 -98
-4 -4 -22 6 -41 21 l-34 28 2 100 c2 95 0 102 -23 129 l-26 29 -50 -52 c-27
-29 -53 -53 -59 -53 -5 0 -21 14 -35 31 l-26 30 83 78 c45 42 105 98 132 124
28 25 53 47 56 47 3 0 47 -42 97 -94z m4522 -116 c148 -162 138 -145 105 -180
-16 -17 -38 -30 -49 -30 -10 0 -71 14 -134 31 -62 17 -116 29 -118 26 -2 -2
25 -42 62 -88 l65 -84 -28 -22 c-15 -13 -33 -23 -40 -23 -6 0 -49 51 -94 113
-45 61 -93 126 -106 144 l-24 31 33 26 34 25 134 -39 c74 -22 136 -40 138 -40
2 0 -20 27 -50 61 -29 34 -64 75 -77 92 l-25 30 30 23 c16 13 31 23 34 21 3
-1 53 -54 110 -117z m-4195 -154 l29 -23 -27 -144 c-14 -79 -29 -168 -33 -196
l-7 -53 -39 22 c-39 23 -40 23 -34 69 6 46 6 46 -36 74 -24 15 -53 37 -65 48
l-22 20 -37 -22 c-41 -24 -61 -21 -93 13 l-22 24 93 49 c51 28 127 71 168 96
41 26 80 47 85 47 6 0 23 -11 40 -24z m3778 -37 c73 -20 147 -113 147 -186 0
-108 -129 -212 -249 -201 -65 6 -108 39 -138 106 -45 98 -16 196 74 249 39 22
84 39 118 42 6 0 27 -4 48 -10z m-3525 -119 c69 -36 66 -26 42 -144 -12 -59
-20 -111 -18 -116 2 -6 24 16 50 48 26 31 60 72 75 90 l28 33 58 -25 c31 -14
57 -29 57 -33 0 -12 -122 -317 -130 -327 -11 -11 -80 12 -80 27 0 7 21 59 45
116 25 57 44 105 42 107 -2 2 -39 -41 -82 -96 l-78 -99 -36 15 c-20 9 -42 18
-48 21 -7 3 -11 15 -8 27 3 11 14 64 25 116 11 52 23 104 26 115 3 11 -23 -31
-56 -92 -34 -62 -66 -113 -71 -113 -17 0 -69 30 -69 40 0 16 172 310 182 310
5 0 25 -9 46 -20z m3141 -85 c41 -21 66 -77 52 -117 -6 -18 -19 -40 -28 -50
-14 -15 -14 -18 -1 -18 15 0 145 -65 162 -81 6 -5 -10 -17 -36 -29 l-46 -20
-74 40 c-71 39 -119 49 -147 31 -15 -10 -13 -22 17 -97 l21 -51 -41 -17 c-23
-9 -42 -15 -43 -13 -11 14 -124 342 -119 346 10 11 219 90 237 91 10 0 31 -7
46 -15z m-2660 -120 c58 -19 115 -45 128 -57 46 -43 39 -126 -15 -168 -31 -25
-100 -26 -166 -4 -27 9 -51 13 -56 8 -4 -5 -15 -33 -25 -61 -18 -57 -28 -62
-77 -40 l-26 12 54 150 c57 158 72 195 76 195 2 0 50 -16 107 -35z m2132 -77
c7 -24 24 -88 39 -142 15 -55 32 -102 38 -104 9 -3 111 27 188 55 14 5 38 -47
26 -59 -12 -12 -283 -90 -290 -84 -2 3 -24 84 -47 181 -28 118 -39 178 -31
180 6 2 18 6 26 8 32 11 40 6 51 -35z m-1818 -8 c5 -4 -1 -54 -12 -110 -26
-129 -26 -162 -1 -185 25 -23 99 -31 123 -13 17 13 28 63 52 241 5 41 9 47 30
47 49 0 56 -8 50 -64 -28 -245 -33 -264 -87 -287 -74 -31 -200 -7 -248 48 -37
42 -37 56 -3 215 l27 127 31 -6 c16 -3 34 -9 38 -13z m1686 -152 c18 -90 35
-170 37 -179 3 -11 -4 -19 -18 -23 -25 -6 -68 -8 -68 -2 0 2 -13 78 -30 169
-35 196 -35 184 -12 190 57 15 55 18 91 -155z m-1058 74 c38 -42 39 -89 3
-131 -14 -17 -32 -31 -40 -31 -18 0 -18 -17 0 -27 15 -9 116 -128 116 -137 0
-3 -24 -6 -54 -6 -51 0 -54 2 -81 40 -44 63 -101 110 -134 110 -25 0 -29 -4
-35 -37 -3 -21 -6 -55 -6 -75 l0 -38 -46 0 -47 0 6 68 c4 37 9 119 13 182 4
63 8 117 9 120 2 3 62 3 135 0 l132 -5 29 -33z m850 19 c33 -34 38 -74 12
-111 -14 -19 -14 -25 -3 -28 8 -3 24 -15 37 -28 50 -50 13 -143 -67 -164 -43
-12 -260 -28 -265 -20 -1 3 -6 87 -10 187 l-7 182 64 4 c193 10 207 9 239 -22z
m-523 -220 c6 -38 -9 -44 -92 -36 -64 6 -76 10 -76 25 0 42 7 45 88 40 72 -5
77 -7 80 -29z"/>
<path d="M2475 7884 c-33 -20 -70 -44 -82 -53 l-22 -18 25 -41 c14 -23 31 -42
37 -42 23 1 152 95 166 122 14 24 14 28 -3 47 -26 29 -52 26 -121 -15z"/>
<path d="M2583 7713 c-34 -21 -71 -45 -84 -54 l-23 -16 33 -51 c18 -29 35 -52
38 -52 3 0 39 21 79 46 105 65 126 102 84 144 -29 29 -58 25 -127 -17z"/>
<path d="M3154 6920 c-30 -12 -64 -58 -64 -87 0 -61 47 -100 143 -118 46 -9
75 -39 61 -63 -31 -49 -106 -47 -135 3 -16 27 -23 31 -50 27 -29 -4 -31 -7
-25 -36 8 -44 54 -82 109 -90 121 -18 208 65 165 158 -14 32 -43 51 -99 66
-75 19 -99 31 -99 51 0 43 79 52 114 14 24 -25 86 -36 86 -15 0 25 -32 71 -60
85 -31 16 -112 19 -146 5z"/>
<path d="M3447 6923 c-4 -3 -7 -87 -7 -185 l0 -178 35 0 35 0 0 185 0 185 -28
0 c-16 0 -32 -3 -35 -7z"/>
<path d="M3607 6924 c-4 -4 -7 -88 -7 -186 l0 -178 35 0 34 0 3 116 3 115 70
-115 c69 -114 70 -115 108 -116 l37 0 -2 183 -3 182 -30 0 -30 0 -5 -118 -5
-117 -71 117 c-63 103 -75 118 -101 121 -16 2 -32 0 -36 -4z"/>
<path d="M4065 6916 c-64 -29 -95 -84 -95 -172 0 -66 17 -109 59 -149 29 -27
38 -30 101 -30 63 0 71 3 100 30 40 37 56 75 38 87 -19 11 -58 10 -58 -2 0 -6
-11 -22 -25 -35 -31 -32 -75 -32 -112 -1 -26 23 -28 29 -28 101 0 72 2 78 28
101 40 34 82 32 118 -7 24 -26 33 -30 59 -24 35 8 36 10 11 51 -35 57 -127 80
-196 50z"/>
<path d="M4367 6924 c-4 -4 -7 -88 -7 -186 l0 -179 138 3 137 3 0 25 c0 25 -1
25 -102 28 l-103 3 0 49 0 49 93 3 c92 3 92 3 95 30 l3 27 -93 3 -93 3 0 40 0
40 75 2 c41 1 85 2 98 2 19 1 23 6 20 29 l-3 27 -126 3 c-69 1 -128 -1 -132
-4z"/>
<path d="M4988 6902 c-9 -15 -33 -37 -52 -47 -30 -16 -36 -25 -36 -52 0 -40 6
-40 54 -8 l36 24 0 -129 0 -130 35 0 35 0 -2 183 -3 182 -25 3 c-19 2 -29 -4
-42 -26z"/>
<path d="M5233 6916 c-79 -36 -85 -179 -8 -214 32 -15 60 -15 87 -1 27 15 32
6 18 -35 -17 -52 -61 -67 -83 -30 -4 8 -21 14 -37 14 -38 0 -40 -27 -7 -66 19
-21 33 -27 68 -28 93 -2 134 54 134 184 0 62 -5 94 -18 117 -32 60 -97 84
-154 59z m95 -105 c4 -39 -12 -61 -44 -61 -53 0 -70 90 -21 109 32 13 61 -9
65 -48z"/>
<path d="M5543 6919 c-61 -18 -85 -97 -43 -139 l21 -21 -27 -32 c-22 -26 -25
-38 -21 -74 6 -53 28 -80 77 -93 51 -14 93 -3 127 32 39 41 40 109 1 143 l-26
22 21 21 c26 26 27 85 1 113 -9 10 -33 23 -53 29 -41 11 -35 11 -78 -1z m75
-61 c21 -21 14 -57 -13 -70 -22 -10 -29 -9 -47 10 -19 18 -20 25 -10 47 13 27
49 34 70 13z m0 -144 c49 -34 10 -118 -46 -98 -29 10 -38 38 -28 79 5 20 14
27 46 34 3 0 16 -6 28 -15z"/>
<path d="M5845 6922 c-71 -25 -97 -92 -53 -139 l21 -23 -21 -23 c-60 -64 -28
-159 61 -181 106 -26 189 92 121 173 -23 28 -24 32 -10 47 35 35 28 105 -13
131 -25 15 -81 23 -106 15z m59 -58 c24 -9 21 -61 -4 -74 -22 -12 -59 2 -61
23 -5 47 22 68 65 51z m4 -150 c41 -28 21 -104 -28 -104 -49 0 -69 76 -28 104
12 9 25 16 28 16 3 0 16 -7 28 -16z"/>
<path d="M4707 6714 c-4 -4 -7 -18 -7 -31 0 -22 3 -23 71 -23 l70 0 -3 28 c-3
26 -6 27 -63 30 -34 2 -64 0 -68 -4z"/>
<path d="M2611 6325 c-27 -62 -27 -96 2 -123 33 -31 75 -28 127 10 l44 33 -29
6 c-17 3 -47 0 -67 -7 l-38 -13 0 57 c0 83 -13 95 -39 37z"/>
<path d="M6365 6340 c-4 -16 -6 -44 -5 -62 3 -48 3 -48 -33 -33 -30 12 -87 10
-87 -4 0 -13 88 -61 112 -61 61 0 84 66 51 147 -21 51 -29 53 -38 13z"/>
<path d="M6480 6282 c0 -12 -7 -40 -16 -62 -14 -35 -15 -47 -4 -86 7 -24 10
-47 7 -51 -3 -3 -20 6 -36 20 -36 30 -74 39 -119 29 l-33 -7 57 -47 c48 -41
62 -48 99 -48 34 0 50 6 74 29 38 36 40 69 7 164 -26 75 -36 91 -36 59z"/>
<path d="M2495 6207 c-24 -77 -25 -92 -15 -118 18 -41 77 -71 119 -59 27 7
131 87 131 100 0 3 -25 5 -55 5 -45 -1 -59 -6 -83 -28 -35 -34 -57 -36 -48 -4
17 55 16 94 -2 141 l-20 50 -27 -87z"/>
<path d="M3120 6170 c0 -5 14 -52 30 -103 17 -52 30 -99 30 -106 0 -9 -32 -12
-120 -10 -66 1 -123 -1 -127 -4 -3 -4 11 -49 31 -102 53 -140 59 -131 -91
-139 -70 -3 -129 -9 -131 -11 -3 -3 7 -22 21 -43 30 -47 96 -176 130 -258 14
-32 41 -96 60 -140 109 -252 260 -738 317 -1016 6 -32 17 -58 23 -58 7 0 46
11 87 24 260 83 699 145 940 132 69 -3 137 -9 153 -12 45 -10 31 11 -38 56
-149 97 -403 177 -649 204 -96 10 -133 19 -142 30 -6 9 -17 44 -23 79 -91 478
-230 1021 -331 1295 -26 69 -25 82 4 82 74 0 375 -72 585 -140 98 -31 122 -36
106 -21 -22 19 -338 151 -445 186 -197 63 -420 103 -420 75z m98 -327 c42
-138 173 -629 256 -957 48 -185 91 -346 96 -357 10 -17 23 -19 133 -19 190 0
446 -34 463 -61 7 -12 -25 -11 -111 2 -38 6 -178 12 -310 13 l-239 1 -37 150
c-103 423 -254 918 -347 1138 -49 117 -49 122 11 144 59 21 64 18 85 -54z
m-171 -228 c32 -88 129 -403 194 -630 38 -132 75 -262 83 -290 8 -27 34 -119
57 -202 23 -84 46 -153 53 -153 6 0 46 7 89 15 91 17 137 19 137 5 0 -5 -8
-10 -18 -10 -10 0 -76 -16 -146 -36 -71 -19 -132 -32 -136 -27 -4 4 -17 51
-29 103 -75 318 -222 759 -365 1095 -36 86 -52 133 -45 140 15 15 71 34 93 32
12 -1 24 -16 33 -42z"/>
<path d="M5785 6154 c-177 -37 -463 -140 -637 -230 -59 -30 -17 -25 99 11 222
71 572 149 589 132 3 -3 -16 -75 -44 -159 -106 -324 -186 -631 -273 -1053 -27
-132 -53 -243 -57 -247 -5 -5 -65 -15 -135 -23 -296 -35 -547 -116 -609 -198
-16 -19 -28 -39 -28 -44 0 -4 45 -6 100 -5 245 9 778 -71 963 -143 70 -28 70
-28 101 108 109 477 336 1099 488 1340 17 26 27 51 23 55 -3 4 -61 9 -128 10
-67 2 -125 7 -129 11 -4 4 10 54 32 111 22 58 40 111 40 118 0 12 -23 13 -125
7 -147 -9 -141 -17 -95 119 17 49 30 93 30 98 0 14 -82 7 -205 -18z m188 -260
c26 -9 49 -19 52 -24 2 -4 -17 -61 -44 -127 -66 -163 -181 -519 -251 -773 -19
-69 -109 -420 -124 -481 l-6 -27 -232 0 c-202 0 -348 -10 -438 -28 -25 -5 -25
-5 -4 10 38 27 238 57 427 63 112 4 180 10 185 17 4 6 32 112 63 236 103 408
281 1075 304 1138 6 16 12 15 68 -4z m170 -250 c26 -9 47 -22 47 -29 0 -7 -26
-76 -59 -152 -124 -293 -247 -657 -331 -986 -27 -104 -51 -192 -55 -195 -3 -3
-36 4 -73 15 -37 12 -100 29 -140 38 -73 17 -103 35 -59 35 13 0 64 -7 112
-15 49 -9 92 -12 96 -8 4 4 32 96 62 203 162 571 241 837 320 1078 12 37 17
38 80 16z"/>
<path d="M6605 6125 c-4 -16 -17 -48 -28 -69 -19 -40 -20 -94 -1 -156 7 -22 0
-19 -45 23 -51 45 -55 47 -114 47 l-61 0 37 -36 c20 -20 37 -40 37 -44 0 -5
15 -18 34 -29 35 -22 110 -29 121 -11 3 6 14 10 24 10 21 0 51 59 51 100 0 16
-6 47 -14 67 -8 21 -18 58 -23 83 -10 45 -10 45 -18 15z"/>
<path d="M2390 6110 c0 -17 -7 -47 -15 -67 -30 -71 -12 -183 29 -183 7 0 27
-7 44 -15 28 -14 34 -14 68 0 28 11 144 116 144 129 0 2 -26 1 -57 -2 -70 -5
-104 -22 -133 -62 -30 -42 -40 -30 -24 31 14 54 10 94 -12 119 -7 8 -16 27
-19 43 -10 39 -25 44 -25 7z"/>
<path d="M6717 5925 c-10 -22 -27 -56 -38 -75 -17 -30 -19 -46 -14 -108 7 -88
12 -102 35 -102 20 0 41 28 60 82 11 30 11 46 1 85 -7 26 -16 73 -19 103 l-7
55 -18 -40z"/>
<path d="M2276 5940 c-2 -8 -7 -31 -9 -50 -2 -19 -10 -56 -17 -81 -15 -52 -10
-81 23 -130 15 -22 32 -35 50 -37 15 -2 27 -8 27 -13 0 -16 64 -10 96 10 18
11 45 36 60 57 16 20 44 52 62 70 17 18 32 36 32 40 0 4 -5 3 -12 -4 -7 -7
-35 -12 -64 -12 -42 0 -58 -5 -90 -31 -22 -17 -46 -41 -54 -55 -8 -13 -18 -24
-22 -24 -5 0 -8 35 -8 79 0 63 -4 83 -20 104 -11 14 -27 41 -34 59 -10 22 -16
28 -20 18z"/>
<path d="M6444 5766 c22 -24 52 -58 65 -75 40 -55 141 -92 154 -57 8 20 -52
106 -92 133 -24 16 -49 23 -82 23 -26 0 -51 5 -54 10 -3 6 -12 10 -19 10 -7 0
5 -20 28 -44z"/>
<path d="M2157 5644 c-4 -79 -3 -143 3 -166 12 -42 54 -80 84 -76 19 3 21 11
24 88 4 105 0 120 -41 166 -17 20 -39 55 -48 77 l-16 40 -6 -129z"/>
<path d="M6832 5730 c-6 -17 -28 -51 -49 -77 -38 -46 -38 -46 -38 -139 0 -51
-3 -95 -6 -98 -3 -4 -20 23 -38 58 -39 77 -74 104 -146 116 -30 5 -66 17 -82
27 -23 14 -21 10 14 -29 23 -25 49 -61 59 -79 26 -52 51 -81 92 -106 39 -24
87 -30 97 -12 4 6 14 8 22 4 26 -9 81 41 93 84 9 35 6 268 -4 278 -2 2 -9 -10
-14 -27z"/>
<path d="M2520 5609 c-19 -11 -48 -19 -65 -19 -33 0 -89 -30 -116 -63 -23 -28
-61 -126 -53 -138 9 -14 42 -10 82 10 45 23 73 53 100 106 11 23 39 60 61 83
45 46 44 49 -9 21z"/>
<path d="M2055 5515 c3 -16 10 -92 15 -168 9 -126 12 -141 36 -173 29 -38 78
-69 94 -59 16 10 12 158 -5 206 -9 24 -36 64 -60 89 -24 25 -53 65 -65 90 -16
36 -19 39 -15 15z"/>
<path d="M6941 5498 c-6 -19 -33 -58 -60 -86 -61 -64 -75 -103 -75 -207 -1
-76 0 -80 22 -83 17 -3 34 8 62 37 42 43 55 89 51 176 -1 28 4 81 10 118 12
75 7 97 -10 45z"/>
<path d="M2478 5385 c-15 -13 -52 -28 -81 -35 -30 -6 -64 -20 -76 -31 -33 -31
-81 -134 -81 -174 0 -31 3 -35 25 -35 62 0 129 65 164 161 11 30 34 69 51 88
37 40 36 59 -2 26z"/>
<path d="M6523 5372 c14 -15 42 -61 61 -102 19 -42 45 -87 59 -102 32 -34 83
-60 110 -56 18 3 22 9 19 38 -3 44 -43 128 -74 157 -13 13 -50 32 -81 42 -31
11 -67 27 -79 35 -36 25 -44 18 -15 -12z"/>
<path d="M1986 5191 c8 -27 21 -91 28 -143 15 -96 33 -148 63 -184 25 -28 68
-54 93 -54 18 0 20 6 20 60 0 92 -34 185 -83 223 -62 50 -99 89 -109 120 -17
48 -28 29 -12 -22z"/>
<path d="M7022 5219 c-10 -24 -31 -48 -125 -136 -41 -38 -65 -102 -73 -193
l-7 -80 30 0 c39 0 106 57 126 107 8 21 20 80 26 131 6 51 19 111 27 132 9 22
14 45 11 52 -3 8 -9 2 -15 -13z"/>
<path d="M2464 5150 c-11 -11 -53 -37 -94 -57 -89 -45 -124 -92 -139 -191 -12
-73 -7 -92 23 -92 60 0 144 107 161 205 4 22 23 64 42 93 37 57 40 74 7 42z"/>
<path d="M6530 5155 c0 -3 13 -25 29 -49 16 -23 33 -60 37 -82 8 -47 46 -131
72 -160 35 -40 103 -66 116 -45 13 21 -15 152 -41 194 -32 51 -46 62 -100 81
-24 8 -58 27 -78 42 -19 14 -35 23 -35 19z"/>
<path d="M1925 4900 c4 -14 16 -42 26 -62 24 -47 46 -112 55 -163 20 -117 130
-227 207 -207 15 4 17 11 11 45 -23 139 -99 256 -182 282 -12 3 -46 34 -74 68
-33 40 -48 53 -43 37z"/>
<path d="M2445 4861 c-22 -22 -60 -50 -85 -64 -76 -40 -124 -166 -105 -276 8
-48 25 -52 76 -18 49 33 85 107 98 201 7 50 22 102 40 138 16 32 26 58 23 58
-4 0 -25 -18 -47 -39z"/>
<path d="M6521 4895 c3 -5 15 -32 28 -60 13 -27 27 -79 32 -114 15 -105 36
-157 79 -202 20 -21 76 -43 89 -34 17 10 13 136 -6 191 -23 69 -40 92 -86 116
-22 11 -62 41 -90 66 -27 26 -48 43 -46 37z"/>
<path d="M7045 4862 c-20 -28 -50 -53 -87 -72 -83 -43 -118 -95 -159 -240 -16
-55 -17 -66 -5 -78 12 -12 21 -12 48 -3 86 30 148 105 163 197 8 48 44 151 63
181 7 12 12 30 10 40 -2 14 -10 8 -33 -25z"/>
<path d="M2490 4565 c-22 -30 -44 -55 -49 -55 -4 0 -26 -16 -48 -35 -68 -58
-89 -168 -56 -295 12 -49 43 -52 84 -8 58 63 69 98 73 226 3 89 9 130 25 170
11 28 19 52 16 52 -2 0 -23 -25 -45 -55z"/>
<path d="M6480 4610 c0 -6 7 -27 17 -48 10 -24 18 -80 23 -162 5 -99 11 -134
28 -166 24 -47 75 -94 102 -94 23 0 40 65 40 157 0 89 -27 144 -94 194 -27 21
-62 58 -77 83 -29 46 -39 55 -39 36z"/>
<path d="M1920 4540 c8 -14 28 -45 45 -70 17 -25 44 -74 59 -110 50 -118 65
-145 97 -179 51 -54 135 -84 182 -65 20 7 7 57 -36 138 -51 97 -107 151 -182
176 -50 17 -76 33 -121 78 -34 34 -51 47 -44 32z"/>
<path d="M7044 4504 c-40 -41 -65 -57 -107 -69 -31 -9 -67 -25 -82 -37 -66
-52 -167 -233 -151 -273 5 -15 14 -16 58 -11 85 12 163 80 198 172 27 74 61
140 104 207 21 32 36 60 34 61 -1 2 -26 -21 -54 -50z"/>
<path d="M2589 4284 c-19 -37 -49 -78 -67 -92 -91 -70 -104 -216 -31 -374 13
-31 21 -33 50 -18 60 33 100 169 79 272 -15 79 -15 187 0 233 19 59 6 49 -31
-21z"/>
<path d="M6397 4305 c4 -22 7 -69 6 -105 -10 -330 -11 -320 58 -388 41 -40 50
-33 85 62 46 127 26 253 -49 310 -19 15 -51 57 -71 94 -35 63 -37 64 -29 27z"/>
<path d="M1978 4144 c6 -11 23 -32 39 -49 45 -47 87 -104 136 -185 70 -116
147 -170 243 -170 76 0 86 17 49 85 -39 72 -126 169 -183 202 -27 16 -69 30
-104 34 -46 5 -70 16 -124 54 -39 28 -62 40 -56 29z"/>
<path d="M6982 4119 c-55 -42 -97 -59 -145 -59 -79 0 -212 -122 -282 -259 -17
-33 -17 -35 1 -48 29 -21 109 -16 162 11 52 27 93 67 139 136 62 93 109 159
147 204 21 26 37 48 35 51 -3 2 -28 -14 -57 -36z"/>
<path d="M2752 4058 c-6 -7 -13 -31 -17 -53 -10 -51 -18 -68 -69 -134 -36 -48
-41 -60 -44 -120 -5 -86 18 -166 70 -248 35 -54 45 -59 70 -36 71 64 83 188
33 338 -24 73 -30 107 -30 178 0 48 -1 87 -1 87 -1 0 -6 -6 -12 -12z"/>
<path d="M6250 3987 c0 -66 -6 -103 -31 -178 -48 -146 -41 -257 21 -331 l28
-33 25 23 c35 33 87 145 98 211 13 81 3 124 -49 199 -25 37 -54 95 -64 130
-10 34 -21 62 -23 62 -3 0 -5 -37 -5 -83z"/>
<path d="M2947 3780 c-4 -14 -11 -54 -17 -90 -6 -39 -23 -90 -41 -124 -28 -51
-31 -65 -27 -121 5 -83 58 -192 127 -259 55 -54 70 -55 98 -4 20 38 25 190 6
230 -40 87 -61 126 -81 150 -21 26 -44 101 -51 173 -5 51 -9 63 -14 45z"/>
<path d="M6050 3744 c0 -56 -23 -147 -45 -174 -58 -73 -97 -184 -96 -272 1
-76 30 -158 57 -158 21 0 111 100 143 160 16 30 35 85 42 122 l12 66 -36 71
c-31 60 -57 167 -57 232 0 5 -4 9 -10 9 -5 0 -10 -25 -10 -56z"/>
<path d="M2130 3713 c30 -26 109 -102 175 -170 126 -129 165 -155 256 -168 36
-5 57 -2 93 13 25 12 46 28 46 36 0 20 -94 121 -155 166 -93 68 -131 83 -235
90 -87 5 -101 9 -157 43 -81 50 -90 46 -23 -10z"/>
<path d="M6856 3723 c-53 -32 -69 -37 -155 -43 -63 -4 -110 -13 -136 -26 -68
-33 -152 -101 -206 -166 l-51 -62 26 -22 c39 -34 99 -39 178 -14 57 17 78 31
130 83 35 34 81 83 103 109 22 26 75 75 118 109 42 34 77 63 77 65 0 11 -32
-2 -84 -33z"/>
<path d="M4387 3740 c-74 -14 -64 -28 32 -42 112 -16 324 3 299 27 -22 23
-241 33 -331 15z"/>
<path d="M3200 3492 c0 -100 -4 -131 -21 -174 -38 -96 -12 -192 85 -310 43
-54 154 -138 181 -138 40 0 54 160 21 245 -23 61 -84 154 -143 217 -49 54 -77
113 -100 208 -8 36 -16 67 -19 69 -2 2 -4 -50 -4 -117z"/>
<path d="M5788 3533 c-23 -98 -51 -152 -123 -234 -69 -78 -130 -190 -141 -257
-8 -54 2 -121 25 -150 l17 -24 60 35 c79 47 146 118 189 200 42 82 46 143 14
227 -18 46 -20 72 -17 163 2 59 1 107 -2 107 -3 0 -13 -30 -22 -67z"/>
<path d="M7052 3555 c-17 -36 -15 -46 14 -99 14 -25 23 -50 20 -55 -3 -5 -29
-15 -57 -22 -39 -10 -54 -20 -66 -42 -8 -16 -12 -31 -9 -34 2 -3 41 7 85 22
l80 26 44 -19 44 -20 16 33 16 33 -45 17 c-41 16 -48 24 -87 102 -42 83 -43
84 -55 58z"/>
<path d="M1913 3456 c-57 -23 -103 -45 -103 -50 0 -14 112 -246 119 -246 30 1
28 21 -14 105 -41 82 -43 91 -28 103 31 22 42 13 83 -68 29 -58 44 -78 55 -74
21 8 20 12 -20 88 -19 37 -35 73 -35 81 0 11 20 25 36 25 2 0 22 -37 45 -82
49 -99 45 -94 63 -79 13 11 8 26 -35 111 -27 54 -49 103 -49 109 0 20 -17 17
-117 -23z"/>
<path d="M3534 3324 c4 -21 14 -58 23 -82 12 -33 15 -64 10 -138 -4 -65 -1
-110 7 -139 32 -103 138 -201 286 -262 98 -41 110 -36 110 40 0 115 -69 236
-185 325 -142 108 -163 130 -200 207 -43 88 -61 106 -51 49z"/>
<path d="M5443 3299 c-38 -81 -77 -126 -167 -193 -134 -99 -189 -168 -221
-280 -12 -39 -15 -72 -10 -103 l7 -45 40 6 c80 13 215 91 275 160 70 80 78
105 75 235 -2 95 1 126 19 178 11 34 19 73 17 85 -4 18 -11 9 -35 -43z"/>
<path d="M2290 3336 c0 -5 80 -53 131 -78 20 -10 80 -54 135 -98 118 -94 157
-115 247 -131 58 -11 74 -10 120 4 30 9 63 28 76 41 l22 23 -56 51 c-60 55
-184 123 -273 148 -49 15 -66 15 -140 4 -87 -14 -148 -6 -211 26 -25 13 -51
18 -51 10z"/>
<path d="M6635 3314 c-59 -22 -79 -24 -130 -18 -136 17 -182 11 -285 -39 -95
-46 -206 -125 -217 -153 -3 -9 6 -24 22 -38 94 -81 270 -48 413 77 54 47 98
78 177 125 129 75 134 86 20 46z"/>
<path d="M6876 3168 c-52 -95 -62 -128 -37 -128 5 0 20 18 32 40 l24 39 85
-49 c85 -49 85 -49 97 -27 7 12 12 27 13 32 0 6 -36 29 -80 53 -44 24 -80 45
-80 48 0 3 9 22 20 43 10 21 16 41 13 45 -17 17 -35 -3 -87 -96z"/>
<path d="M3890 3224 c0 -4 22 -53 50 -109 35 -71 54 -127 64 -182 24 -139 74
-202 213 -269 85 -41 153 -54 288 -54 135 0 214 14 293 53 137 67 205 159 215
292 4 47 15 80 50 145 67 128 68 145 3 65 -66 -80 -117 -124 -172 -147 -142
-59 -175 -75 -223 -112 -54 -41 -141 -146 -141 -171 0 -7 -6 -18 -14 -24 -11
-10 -21 0 -50 53 -61 108 -156 180 -325 246 -69 27 -117 65 -192 152 -32 38
-59 66 -59 62z"/>
<path d="M2058 3148 c-49 -27 -88 -55 -88 -62 0 -7 24 -48 53 -92 79 -119 137
-140 210 -75 49 45 45 93 -16 199 -27 45 -54 82 -60 81 -7 -1 -51 -23 -99 -51z
m135 -67 c15 -27 27 -57 27 -68 0 -29 -44 -65 -81 -66 -27 -2 -38 5 -66 41
-18 24 -33 50 -33 57 0 12 101 82 121 84 3 1 18 -21 32 -48z"/>
<path d="M6768 2985 c-6 -14 -9 -27 -7 -29 2 -2 44 -31 94 -65 l89 -62 18 23
c10 13 17 26 15 30 -2 7 -184 128 -192 128 -3 0 -11 -11 -17 -25z"/>
<path d="M2930 2963 c-14 -3 -52 -16 -85 -30 -53 -22 -69 -25 -135 -19 -41 3
-100 13 -130 21 -30 8 -55 13 -57 11 -3 -3 76 -36 184 -75 45 -17 135 -57 200
-90 140 -70 183 -83 283 -85 96 -1 156 21 206 76 l37 41 -24 20 c-56 47 -236
113 -343 127 -75 10 -95 10 -136 3z"/>
<path d="M5934 2961 c-118 -19 -335 -110 -342 -144 -6 -27 57 -85 114 -107 65
-24 135 -25 223 -5 64 16 100 31 226 99 39 21 108 51 155 67 119 41 191 71
186 76 -2 2 -32 -4 -67 -13 -35 -9 -102 -17 -149 -18 -72 -1 -91 3 -122 22
-42 26 -139 36 -224 23z"/>
<path d="M2274 2867 c-57 -44 -70 -58 -72 -85 -4 -39 33 -108 79 -146 49 -41
87 -35 158 24 33 27 62 53 64 57 3 5 -3 18 -13 30 l-18 23 -67 -55 c-37 -30
-71 -55 -77 -55 -18 0 -78 68 -78 88 0 14 22 37 63 68 34 26 64 49 66 51 6 4
-21 53 -30 53 -4 0 -38 -24 -75 -53z"/>
<path d="M6626 2793 c-36 -43 -66 -81 -66 -85 0 -8 161 -148 170 -148 4 0 15
9 26 21 19 21 19 21 -18 51 -31 24 -36 33 -28 48 12 23 61 40 116 40 36 0 46
5 63 29 26 36 26 39 -1 35 -106 -14 -110 -14 -103 13 9 39 -18 73 -60 73 -30
0 -41 -9 -99 -77z m104 12 c10 -12 8 -21 -9 -48 -11 -18 -29 -41 -39 -50 -18
-16 -20 -16 -37 3 -19 21 -18 25 34 83 28 31 34 32 51 12z"/>
<path d="M3515 2679 c-77 -8 -128 -27 -190 -69 -82 -56 -127 -70 -229 -70
-105 0 -137 -15 -51 -24 30 -3 81 -9 113 -12 61 -6 159 -27 316 -68 149 -39
254 -31 354 27 64 37 112 96 112 137 0 30 -18 38 -150 64 -100 19 -190 24
-275 15z"/>
<path d="M5330 2680 c-77 -10 -194 -35 -233 -49 -15 -6 -27 -18 -27 -26 0 -43
65 -118 130 -150 95 -48 202 -56 320 -24 41 11 109 29 150 40 41 11 135 26
209 34 169 18 195 35 53 35 -114 0 -157 12 -236 68 -91 64 -222 89 -366 72z"/>
<path d="M2472 2605 c-39 -33 -48 -72 -27 -121 21 -52 52 -83 102 -106 40 -17
93 -17 93 2 0 17 -39 40 -67 40 -32 0 -77 37 -89 72 -7 24 21 67 56 85 44 22
110 -21 110 -73 0 -24 45 -60 55 -44 20 33 -37 125 -96 156 -45 23 -103 18
-137 -11z"/>
<path d="M6473 2610 c-12 -5 -40 -27 -62 -49 -64 -64 -72 -136 -21 -191 65
-70 186 -20 251 104 l21 39 -36 36 -36 35 -50 -49 c-44 -44 -48 -51 -35 -64
13 -13 18 -12 43 12 21 20 31 24 40 15 14 -14 -7 -58 -44 -87 -50 -39 -116
-19 -137 42 -14 39 43 107 90 107 23 0 56 37 47 52 -7 10 -42 9 -71 -2z"/>
<path d="M4320 2554 c-240 -25 -371 -73 -451 -162 -69 -77 -105 -98 -223 -131
-155 -43 -154 -50 4 -31 47 6 182 10 300 10 229 0 289 8 379 53 58 29 135 99
151 137 17 41 34 38 63 -12 43 -74 134 -134 244 -163 44 -12 112 -15 278 -15
121 1 254 -3 295 -9 90 -12 116 -13 106 -4 -8 9 -116 43 -136 43 -36 1 -122
52 -167 100 -92 98 -164 133 -348 165 -85 15 -412 28 -495 19z"/>
<path d="M6180 2363 c-47 -36 -84 -69 -83 -74 4 -14 123 -179 129 -179 8 0 60
36 131 92 41 32 60 54 56 63 -3 8 -8 15 -12 15 -4 0 -39 -25 -78 -55 l-71 -55
-17 27 c-18 27 -18 27 16 52 77 59 92 76 77 88 -10 9 -26 2 -72 -33 -33 -24
-62 -44 -65 -44 -4 0 -12 9 -18 19 -11 17 -6 24 45 63 31 23 61 46 67 50 6 5
5 12 -5 22 -13 12 -26 6 -100 -51z"/>
<path d="M2780 2365 c-41 -19 -93 -41 -114 -50 l-39 -16 21 -22 c19 -18 26
-20 51 -11 26 10 33 8 79 -28 45 -34 51 -42 46 -66 -5 -23 -1 -32 20 -45 34
-23 36 -22 36 14 0 17 7 74 16 125 l16 94 -24 20 c-12 11 -25 19 -28 19 -3 0
-39 -16 -80 -34z m70 -44 c0 -21 -13 -71 -19 -71 -3 0 -19 11 -36 24 l-30 24
35 15 c42 18 50 20 50 8z"/>
<path d="M2996 2275 c-4 -11 6 -23 29 -37 l36 -20 -27 -47 c-15 -25 -38 -62
-51 -81 l-23 -35 22 -17 c13 -10 25 -18 28 -18 3 0 22 28 42 63 63 106 59 102
98 79 34 -21 50 -21 50 2 0 10 -179 126 -194 126 -2 0 -7 -7 -10 -15z"/>
<path d="M5965 2217 c-44 -26 -86 -52 -94 -56 -8 -5 -11 -16 -8 -25 6 -15 10
-15 47 4 l39 20 17 -27 c51 -84 85 -133 92 -133 5 0 17 6 27 14 18 13 16 17
-33 94 -29 45 -52 82 -52 84 0 2 16 12 35 22 38 21 42 28 23 43 -9 6 -38 -6
-93 -40z"/>
<path d="M3216 2088 c-19 -35 -43 -80 -53 -101 -17 -38 -17 -39 2 -53 10 -8
22 -14 27 -14 8 0 112 200 106 205 -2 1 -13 7 -25 14 -20 10 -24 7 -57 -51z"/>
<path d="M5772 2111 c-11 -6 -7 -21 18 -71 17 -34 30 -63 28 -65 -2 -2 -42 14
-89 36 -71 33 -89 38 -111 30 l-26 -10 46 -105 c25 -58 51 -106 57 -106 6 0
19 6 29 13 17 12 16 16 -10 70 -15 31 -25 59 -22 62 3 4 38 -10 77 -29 74 -38
100 -43 132 -25 19 10 17 15 -33 110 -51 96 -66 110 -96 90z"/>
<path d="M3324 2026 c-46 -46 -48 -100 -4 -150 56 -63 182 -85 231 -40 10 9
24 35 30 56 8 32 7 46 -8 76 -24 50 -100 91 -166 92 -42 0 -54 -5 -83 -34z
m172 -31 c32 -21 40 -59 21 -100 -21 -43 -62 -54 -114 -28 -48 23 -65 55 -51
94 20 59 84 74 144 34z"/>
<path d="M5493 1992 c-10 -6 -3 -33 26 -111 21 -56 41 -105 44 -107 3 -3 16 0
30 8 l25 13 -41 103 c-40 101 -52 114 -84 94z"/>
<path d="M3662 1949 c-36 -100 -65 -190 -61 -193 2 -2 16 -7 30 -11 23 -6 27
-2 38 36 31 103 29 102 67 14 36 -85 54 -105 90 -105 20 0 25 11 46 103 22 91
23 103 9 115 -26 21 -38 13 -51 -35 -24 -96 -24 -96 -69 0 -22 48 -45 87 -50
87 -5 0 -16 3 -25 6 -11 4 -19 -2 -24 -17z"/>
<path d="M5190 1905 c-52 -12 -95 -26 -95 -31 0 -23 38 -192 45 -204 7 -11 22
-11 89 4 119 25 152 38 142 55 -8 12 -21 12 -91 -3 -69 -15 -84 -16 -91 -5
-22 34 -10 47 61 64 72 18 90 29 72 47 -6 6 -31 4 -72 -7 -69 -18 -90 -15 -90
13 0 15 15 22 75 37 59 15 75 23 75 37 0 21 1 21 -120 -7z"/>
<path d="M4071 1788 c-7 -46 -14 -97 -17 -114 l-6 -32 86 -12 c136 -19 186 8
186 102 0 38 -6 54 -27 78 -24 26 -41 33 -113 45 -47 8 -88 15 -91 15 -4 0
-12 -37 -18 -82z m153 18 c40 -16 52 -52 36 -102 -8 -23 -20 -36 -36 -40 -24
-6 -92 0 -101 10 -2 2 -1 36 3 75 6 70 7 71 36 71 16 0 44 -6 62 -14z"/>
<path d="M4981 1833 c-6 -21 -16 -59 -23 -86 -7 -26 -16 -46 -22 -44 -5 2 -27
33 -49 70 -35 58 -44 67 -69 67 -15 0 -28 -3 -28 -7 0 -5 28 -53 63 -108 57
-91 65 -100 92 -98 15 1 32 6 37 11 8 8 58 195 58 220 0 6 -11 12 -25 12 -20
0 -26 -7 -34 -37z"/>
<path d="M4713 1833 c-20 -4 -21 -8 -17 -86 3 -45 7 -97 10 -115 5 -31 8 -33
32 -27 15 4 28 8 29 9 1 1 -2 42 -7 91 -5 50 -10 100 -10 113 0 12 -3 21 -7
21 -5 -1 -18 -4 -30 -6z"/>
<path d="M4386 1808 c-3 -13 -6 -65 -6 -115 l0 -93 30 0 c29 0 30 1 30 51 l0
52 33 -7 c20 -4 47 -22 74 -51 35 -38 47 -45 79 -45 l38 0 -47 48 c-50 51 -56
62 -32 62 8 0 22 11 31 25 14 21 15 31 6 51 -16 34 -50 44 -146 44 -78 0 -84
-1 -90 -22z m179 -42 c0 -24 -34 -35 -87 -28 -32 4 -38 8 -38 29 0 23 2 24 63
21 54 -3 62 -6 62 -22z"/>
<path d="M1600 7083 c-23 -9 -58 -43 -97 -95 l-35 -48 33 -27 c60 -51 69 -56
84 -43 23 19 84 114 90 142 5 21 1 33 -19 52 -26 27 -30 28 -56 19z"/>
<path d="M1135 6442 c-27 -17 -124 -167 -114 -176 9 -8 289 -146 297 -146 13
0 82 148 82 176 0 54 -38 97 -127 143 -52 26 -98 27 -138 3z"/>
<path d="M8185 4679 c-67 -25 -105 -82 -105 -157 0 -94 67 -152 178 -154 70
-1 109 16 139 60 35 54 40 113 12 169 -13 26 -36 55 -50 66 -31 23 -131 32
-174 16z"/>
<path d="M8079 4006 c-44 -30 -69 -80 -69 -136 0 -97 79 -163 196 -165 85 0
139 54 151 153 12 102 -62 172 -183 172 -46 0 -67 -5 -95 -24z"/>
<path d="M2215 1713 l-27 -28 52 -47 c28 -27 59 -48 69 -48 23 0 41 19 41 44
0 22 -76 106 -96 106 -6 0 -24 -12 -39 -27z"/>
<path d="M2538 1368 l-48 -31 41 -30 c22 -16 41 -28 43 -26 4 6 26 96 26 108
0 17 -11 13 -62 -21z"/>
<path d="M6332 1374 c-71 -36 -90 -99 -52 -174 36 -71 112 -88 179 -41 64 46
63 126 -2 189 -40 39 -81 48 -125 26z"/>
<path d="M5920 1159 c-24 -11 -46 -22 -48 -23 -2 -2 4 -20 12 -41 17 -40 25
-41 97 -4 50 25 63 43 49 68 -14 26 -50 26 -110 0z"/>
<path d="M3326 1023 c-9 -26 -16 -47 -16 -49 0 -5 93 -24 119 -24 41 0 59 32
37 65 -12 19 -89 55 -117 55 -4 0 -14 -21 -23 -47z"/>
<path d="M4124 931 c-2 -2 -4 -22 -4 -43 l0 -38 69 0 c50 0 74 4 85 16 19 19
20 25 4 46 -9 12 -33 18 -81 20 -38 2 -71 1 -73 -1z"/>
<path d="M4975 930 c-4 -6 -4 -24 0 -40 6 -29 8 -30 65 -30 70 0 113 26 94 57
-9 14 -26 19 -82 21 -42 2 -73 -1 -77 -8z"/>
<path d="M5036 793 c-54 -4 -58 -6 -52 -26 3 -12 6 -33 6 -46 0 -24 1 -24 76
-18 83 6 104 17 104 53 0 24 -34 47 -63 42 -7 -1 -38 -3 -71 -5z"/>
</g>
</svg>
